<?xml version="1.0" encoding="utf-8" ?><svg xmlns="http://www.w3.org/2000/svg" xmlns:xlink="http://www.w3.org/1999/xlink" width="1024" height="1024" viewBox="0 0 1024 1024"><path fill="#83C5BE" d="M156.672 426.982C162.576 418.937 170.152 412.193 177.152 405.119L204.612 377.059L242.843 338.144C251.524 329.198 260.102 319.657 269.329 311.292C272.018 308.855 275.236 305.784 278.949 305.187C282.26 304.655 285.174 306.774 287.634 308.731C294.527 314.215 300.606 321.224 306.789 327.521L341.431 362.819C354.199 375.801 367.054 388.696 379.997 401.504C387.23 408.671 395.296 415.687 401.884 423.427C403.996 425.909 405.043 427.749 405.373 431.065C406.549 442.862 405.911 455.235 405.894 467.084L405.885 527.172L405.92 613.454C405.927 627.263 406.603 641.339 405.989 655.115C405.88 657.558 405.684 661.41 404.016 663.319C403.633 663.758 403.155 664.048 402.566 663.99C400.313 663.764 397.754 661.136 396.114 659.657C389.133 653.363 382.609 646.431 375.95 639.789L340.131 603.983C333.174 597.008 326.267 589.981 319.413 582.903C316.661 580.07 312.701 576.817 310.638 573.484C309.833 572.182 309.793 570.808 310.191 569.345C310.241 569.16 310.32 568.984 310.385 568.804C310.747 560.208 311.79 551.655 310.287 543.119C305.45 532.528 295.169 526.387 287.779 517.834C287.479 499.993 288.116 482.14 287.948 464.298C293.978 460.032 299.625 455.479 300.95 447.724C301.798 442.564 300.453 437.285 297.24 433.159C293.684 428.562 288.401 425.621 282.62 425.02C276.997 424.45 270.881 426.074 266.591 429.832C262.38 433.522 260.27 439.041 260.066 444.561C259.866 450.001 261.905 454.875 265.748 458.705C268.185 461.134 270.957 462.72 273.988 464.253C273.958 475.792 272.456 514.436 275.067 522.379C276.217 525.879 278.878 528.69 281.427 531.264C286.459 536.345 292.145 541.002 296.647 546.571C296.672 557.334 295.327 568.227 296.525 578.94C303.854 589.501 317.554 601.248 327.072 610.714C344.335 627.884 361.355 645.363 378.809 662.334C387.858 671.133 398.181 679.682 405.443 690.031C405.827 696.549 407.667 715.742 403.822 720.508C403.21 721.266 403.109 721.345 402.125 721.509C391.339 715.877 377.375 699.312 368.688 690.409L335.007 656.023L280.582 601.899C273.048 609.781 265.115 617.307 257.4 625.011L208.418 673.881L179.01 703.512C173.934 708.662 168.988 714.124 163.655 718.998C162.474 720.078 161.196 721.079 159.521 721.155C158.696 721.193 158.187 720.958 157.494 720.577C154.612 715.463 155.899 696.56 156.05 690.01C162.498 679.488 173.886 670.317 182.68 661.686L241.731 602.578C250.281 593.99 261.035 585.704 267.943 575.797C268.052 572.615 268.037 569.355 268.378 566.194C260.439 558.219 252.258 550.492 244.388 542.45C240.885 538.871 236.942 535.221 234.014 531.156C234.015 526.584 233.961 522.005 234.027 517.434C240.073 513.357 245.586 509.07 247.106 501.467C248.161 496.189 246.915 491.062 243.754 486.73C240.347 481.98 235.127 478.849 229.332 478.079C223.756 477.389 217.494 478.888 213.111 482.478C209.015 485.832 207.011 490.905 206.637 496.088C206.211 501.996 207.87 507.35 211.93 511.708C214.231 514.178 217.082 516.112 219.914 517.918C219.958 524.316 219.942 530.715 219.866 537.112C230.686 548.708 242.611 559.214 253.259 570.964C233.187 592.736 211.411 613.196 190.403 634.074C182.863 641.567 167.603 659.1 159.376 663.923C158.193 663.594 157.539 663.522 156.854 662.376C155.249 659.692 155.806 651.843 155.779 648.552C155.673 635.694 156.057 622.796 156.071 609.93L156.075 497.241L155.95 452.219C155.935 444.111 155.167 434.941 156.672 426.982Z"/><path fill="#EDF6F9" d="M182.564 438.873C214.784 405.999 247.214 373.332 279.853 340.874L345.728 406.632L366.417 427.199C370.665 431.411 375.205 435.542 379.037 440.143L379.011 624.751C361.212 607.06 343.268 589.595 325.875 571.495C335.144 562.25 344.863 553.554 353.445 543.638L353.373 503.981C359.803 500.353 365.599 496.394 367.777 488.884C369.37 483.21 368.617 477.133 365.686 472.019C362.813 467.068 358.043 463.505 352.481 462.154C346.88 460.75 340.949 461.728 336.095 464.855C331.191 468.08 327.77 473.121 326.585 478.869C325.515 484.298 326.602 490.17 329.814 494.706C332.597 498.637 336.724 501.378 341.008 503.443C341.137 515.073 341.1 526.703 340.896 538.332C332.746 546.682 318.942 562.427 310.385 568.804C310.747 560.208 311.79 551.655 310.287 543.119C311.903 541.04 312.976 538.81 313.275 536.164C314.619 524.264 313.49 507.208 313.487 494.637L313.55 414.331L279.55 380.094C247.406 412.582 214.596 444.555 182.943 477.508C182.546 464.634 182.419 451.752 182.564 438.873Z"/><path fill="#EDF6F9" d="M345.585 473.751C350.827 472.709 355.918 476.128 356.934 481.375C357.951 486.622 354.507 491.695 349.255 492.687C344.04 493.671 339.009 490.256 337.999 485.045C336.989 479.834 340.38 474.787 345.585 473.751Z"/><path fill="#83C5BE" d="M625.943 370.254C636.764 370.654 646.381 373.075 654.344 380.89C662.631 389.022 666.564 400.902 666.544 412.349C666.523 424.512 662.545 436.797 653.755 445.468C646.301 452.821 636.372 456.181 626.014 456.113C616.357 456.049 606.803 452.548 599.966 445.6L599.97 468.078C599.719 474.361 599.563 480.648 599.501 486.935C592.693 486.507 585.614 486.743 578.785 486.924C579.245 475.724 578.986 464.47 579.033 453.26L579.154 372.058C585.761 372.108 592.368 372.05 598.972 371.886L599.064 382.298C599.269 382.057 599.471 381.813 599.68 381.576C606.625 373.683 615.749 370.821 625.943 370.254ZM626.254 437.523C632.852 435.877 638.163 433.514 641.801 427.393C645.568 421.054 646.306 412.724 644.341 405.647C642.761 399.953 639.491 394.888 634.286 391.899C629.987 389.431 624.821 388.55 619.916 389.133C613.479 390.303 607.977 393.115 604.12 398.577C600.19 404.143 598.704 411.572 599.901 418.253C601.001 424.39 604.405 430.096 609.62 433.591C614.692 436.99 620.293 437.771 626.254 437.523Z"/><path fill="#83C5BE" d="M726.953 477.219C733.598 476.839 740.378 477.106 747.039 477.123L747.007 587.98C740.69 587.829 734.334 587.986 728.013 588.001L727.81 579.749C724.627 582.996 721.4 585.538 717.193 587.344C706.996 591.722 695.235 590.633 685.176 586.545C682.883 585.312 680.731 583.934 678.718 582.282C670.308 575.382 665.766 565.619 664.682 554.897C663.46 542.815 666.12 529.773 674.046 520.296C680.242 512.862 689.189 508.258 698.84 507.539C710.16 506.605 718.617 510.666 727.061 517.86C727.064 512.637 726.29 479.008 726.953 477.219ZM708.561 571.903C714.516 571.069 719.528 568.959 723.236 563.988C727.506 558.264 728.469 550.177 727.244 543.253C726.249 537.63 723.369 532.438 718.501 529.293C714.197 526.512 708.802 525.518 703.743 526.089C697.772 527.209 692.561 529.618 688.923 534.694C685.013 540.148 683.896 547.74 685.116 554.258C686.171 559.894 689.157 565.336 693.99 568.572C698.383 571.513 703.417 572.064 708.561 571.903Z"/><path fill="#83C5BE" d="M503.621 340.413C511.817 340.503 520.013 340.538 528.21 340.517C534.245 355.741 539.545 371.333 545.322 386.67C553.823 409.238 562.73 431.745 570.61 454.534C562.549 454.074 554.469 454.024 546.403 454.384C543.378 446.744 540.914 438.799 538.234 431.026C535.298 430.826 532.349 430.903 529.408 430.927L493.416 430.817C490.382 438.364 486.544 446.448 484.78 454.386C477.187 453.75 469.36 454.145 461.75 454.301C475.435 416.287 489.269 378.181 503.621 340.413ZM500.468 411.985L517.536 412.014L531.474 412.005C529.411 405.531 519.094 374.161 515.806 370.801C510.609 384.497 505.496 398.226 500.468 411.985Z"/><path fill="#83C5BE" d="M627.989 606.474C634.286 606.55 640.584 606.581 646.882 606.567C646.696 619.853 646.95 633.171 647.021 646.46C651.837 640.778 657.766 637.011 665.218 635.758C674.712 634.161 685.136 636.414 692.929 642.123C701.353 648.294 706.218 658.033 707.694 668.227C709.625 681.554 706.877 694.49 698.839 705.38C698.179 706.067 697.509 706.744 696.83 707.412C689.952 714.154 680.958 717.257 671.403 717.098C661.687 716.937 653.766 713.009 647.057 706.127L646.993 715.461C640.707 715.031 634.282 715.124 627.992 715.406L627.989 606.474ZM668.167 699.803C674.298 699.278 679.545 697.6 683.663 692.718C688.396 687.106 689.493 679.54 688.679 672.452C688.021 666.73 685.801 661.256 681.2 657.594C677.344 654.525 672.381 653.141 667.497 653.291C661.222 654.278 655.997 656.282 652.021 661.523C647.719 667.194 646.431 674.51 647.502 681.448C648.386 687.176 651.289 692.551 656.079 695.917C659.162 698.084 664.306 699.887 668.167 699.803Z"/><path fill="#83C5BE" d="M609.151 507.769C631.769 504.135 653.05 519.531 656.674 542.151C660.298 564.771 644.893 586.045 622.271 589.659C599.663 593.271 578.406 577.877 574.784 555.271C571.163 532.665 586.546 511.401 609.151 507.769ZM619.738 570.962C627.703 569.545 634.292 563.957 636.993 556.331C639.694 548.705 638.09 540.216 632.793 534.1C627.496 527.985 619.322 525.187 611.389 526.773C599.302 529.189 591.413 540.886 593.701 552.998C595.989 565.11 607.602 573.122 619.738 570.962Z"/><path fill="#83C5BE" d="M514.119 476.201C524.88 475.394 536.326 477.912 545.646 483.397C557.239 490.22 563.507 500.553 566.792 513.325C559.809 513.091 552.759 513.407 545.771 513.538C543.472 509.54 540.809 505.696 537.222 502.739C530.646 497.318 522.754 495.684 514.465 496.486C506.046 497.301 497.967 501.124 492.584 507.743C485.647 516.272 483.066 528 484.328 538.782C485.476 548.587 490.174 558.098 498.058 564.196C505.059 569.506 513.881 571.818 522.586 570.623C530.498 569.57 537.735 565.574 542.586 559.208C543.975 557.476 545.12 555.412 546.333 553.545C553.479 553.484 560.626 553.505 567.772 553.608C566.104 559.793 563.613 565.59 559.737 570.729C551.729 581.347 540.114 587.667 527.023 589.485C511.729 591.609 495.857 588.385 483.508 578.892C472.338 570.417 465.078 557.778 463.385 543.86C461.251 527.155 464.467 509.418 475.044 495.994C484.873 483.519 498.723 478.014 514.119 476.201Z"/><path fill="#83C5BE" d="M714.369 370.714C715.192 370.647 716.016 370.605 716.841 370.589C726.767 370.351 737.386 374.108 744.456 381.155C754.856 391.522 756.445 405.216 756.504 419.195L717.428 418.846C709.992 418.793 702.393 419.09 694.984 418.498C696.404 423.695 698.079 428.312 701.921 432.303C706.347 436.902 712.421 439.296 718.781 439.216C728.441 439.095 733.107 434.469 739.329 428.044C740.565 427.785 741.657 428.919 742.706 429.591C746.623 432.942 750.964 435.984 755.064 439.121C745.005 447.02 738.665 453.177 725.399 455.084C713.484 456.796 699.924 454.504 690.226 447.051C681.986 440.719 676.995 430.89 675.71 420.673C674.181 408.512 676.788 395.468 684.5 385.741C692.357 375.831 702.118 372.065 714.369 370.714ZM695.585 404.59L719.625 404.633C725.367 404.589 731.278 404.407 736.991 404.961C734.477 398.516 731.821 392.448 725.094 389.403C722.021 388.011 718.633 387.543 715.284 387.582C708.614 388.828 703.251 390.801 699.305 396.725C697.668 399.183 696.621 401.846 695.585 404.59Z"/><path fill="#83C5BE" d="M791.733 507.638C793.908 507.331 796.303 507.375 798.501 507.374C808.3 507.367 817.783 511.022 824.749 517.961C835.048 528.218 836.335 541.171 836.444 555.011C816.63 555.162 796.795 554.468 776.973 554.488C777.259 555.827 777.601 557.103 778.07 558.392C780.228 564.329 784.26 569.445 790.103 572.075C796.273 574.852 806.999 574.707 812.495 570.113C814.8 568.187 817.327 564.128 820.009 563.064L821.239 563.695C825.674 567.063 830.361 570.312 834.427 574.12C827.447 581.046 819.862 586.738 810.098 588.949C798.596 591.553 784.599 590.354 774.546 583.83C766.063 578.325 760.579 569.694 758.497 559.867C755.975 547.963 757.529 534.928 764.384 524.693C770.899 514.964 780.443 509.785 791.733 507.638ZM777.512 540.639L799.875 540.581L817.665 540.938C815.127 534.561 812.291 528.666 805.617 525.725C802.847 524.504 799.574 524.01 796.556 524.151C790.974 524.857 785.784 526.763 782.149 531.303C779.898 534.114 778.713 537.3 777.512 540.639Z"/><path fill="#83C5BE" d="M574.68 636.198C575.87 636.089 577.061 636.01 578.254 635.961C587.55 635.609 597.467 637.058 604.462 643.761C608.08 647.228 610.531 651.636 611.932 656.416C616.172 670.872 613.96 699.569 614.137 715.448C607.778 715.28 601.416 715.194 595.055 715.19L595.14 706.008C593.516 707.928 591.819 709.841 589.81 711.368C582.836 716.67 573.718 718.207 565.174 716.911C556.739 715.632 550.847 711.198 545.936 704.435C544.063 700.831 543.078 697.09 543.148 693.008C543.224 686.749 545.895 680.802 550.522 676.586C561.319 666.885 581.725 667.954 595.338 668.86C594.883 666.245 594.542 663.398 593.389 660.988C591.499 657.036 588.411 654.056 584.184 652.748C580.251 651.532 575.785 651.689 572.17 653.776C568.024 656.171 566.138 659.847 564.972 664.304L546.012 659.476C546.911 654.986 548.874 650.777 551.736 647.202C557.509 640.104 565.894 637.227 574.68 636.198ZM568.242 700.803C573.725 702.713 579.391 702.846 584.681 700.211C589.543 697.79 593.049 693.4 594.692 688.251C595.445 685.888 595.558 684.18 594.591 681.897C592.982 681.526 591.451 681.668 589.82 681.757C582.497 681.891 570.765 680.924 565.134 686.386C563.382 688.085 562.576 690.233 562.605 692.658C562.634 695.139 563.605 696.964 565.383 698.654C566.272 699.498 567.21 700.151 568.242 700.803Z"/><path fill="#83C5BE" d="M759.337 372.002C767.171 372.3 775.068 371.901 782.915 372.068C789.375 379.867 794.948 388.621 800.444 397.11C805.104 388.349 811.456 379.979 817.394 372.041C825.202 371.973 833.021 372.084 840.83 372.124C833.071 385.901 822.207 399.352 812.848 412.168C818.576 420.163 839.54 446.275 841.502 453.682C840.216 454.463 838.216 454.18 836.75 454.159C830.702 454.039 824.659 454.32 818.615 454.537C812.282 445.905 805.781 437.297 800.212 428.144C793.768 436.692 788.038 445.858 781.609 454.471C773.846 453.512 765.582 454.276 757.789 454.621L787.945 412.133C778.106 399.248 767.666 385.895 759.337 372.002Z"/><path fill="#83C5BE" d="M468.349 606.721C474.808 607.254 481.494 606.947 487.984 606.947L488.026 694.765C504.057 694.049 520.326 694.593 536.378 694.601C535.542 701.369 536.001 708.573 536.049 715.384C526.447 714.572 516.425 715.1 506.779 715.108C493.837 715.118 480.762 714.773 467.839 715.392C468.394 688.633 467.995 661.788 467.99 635.02C467.989 629.098 467.015 611.305 468.349 606.721Z"/><path fill="#83C5BE" d="M745.11 635.719C750.255 635.048 756.721 636.396 761.416 638.554C768.704 641.904 773.808 648.257 776.439 655.697C771.197 657.232 766.036 659.02 760.788 660.542C759.807 659.11 758.83 657.609 757.671 656.313C754.887 653.202 750.659 651.304 746.492 651.269C743.131 651.241 739.27 652.247 736.842 654.701C735.725 655.831 735.006 657.255 735.15 658.887C735.811 666.385 754.976 669.264 760.797 671.244C764.381 672.464 767.967 674.099 770.874 676.56C775.259 680.274 777.323 685.549 777.619 691.203C777.958 697.679 776.706 702.918 772.142 707.795C765.439 714.957 755.476 716.724 746.116 717.191C739.993 716.968 733.724 716.132 728.231 713.233C720.314 709.055 716.588 702.488 714.115 694.279C719.58 693.23 725.066 692.299 730.57 691.487C731.61 693.745 732.634 695.891 734.44 697.648C737.444 700.57 742.697 702.362 746.867 702.142C750.482 701.951 754.439 701.364 756.882 698.445C758.176 696.899 759.242 694.525 758.843 692.466C757.375 684.908 739.573 682.737 733.581 680.824C730.331 679.786 727.151 678.325 724.379 676.322C720.043 673.19 717.158 668.912 716.514 663.548C715.762 657.297 718.062 649.561 722.122 644.76C727.937 637.882 736.694 636.565 745.11 635.719Z"/><path fill="#83C5BE" d="M278.584 437.687C282.502 436.491 286.657 438.648 287.933 442.541C289.208 446.434 287.136 450.632 283.27 451.987C280.698 452.888 277.84 452.328 275.798 450.523C273.756 448.719 272.849 445.951 273.427 443.288C274.005 440.625 275.978 438.483 278.584 437.687Z"/><path fill="#83C5BE" d="M225.651 490.619C229.706 489.914 233.566 492.62 234.287 496.672C235.007 500.723 232.316 504.595 228.268 505.331C224.196 506.072 220.299 503.362 219.574 499.288C218.85 495.214 221.574 491.327 225.651 490.619Z"/></svg>