<?xml version="1.0" encoding="utf-8" ?><svg xmlns="http://www.w3.org/2000/svg" xmlns:xlink="http://www.w3.org/1999/xlink" width="1024" height="1024" viewBox="0 0 1024 1024"><path fill="#0F3B4E" d="M265.011 366.532C266.177 366.41 267.26 366.297 268.422 366.524C270.231 366.877 271.416 367.765 272.777 368.949C276.607 372.281 280.036 376.159 283.59 379.783L302.347 398.652C310.645 406.917 319.265 414.852 327.491 423.189C331.393 427.144 335.947 431.309 338.933 435.995C339.976 482.521 338.139 529.144 339.211 575.676C332.418 569.83 326.275 562.627 319.88 556.3C306.529 543.089 292.578 530.11 280.257 515.928C279.473 507.469 280.46 498.858 279.759 490.358C277.317 487.266 274.292 484.503 271.532 481.688C271.369 474.647 271.383 467.603 271.574 460.562C272.39 459.909 273.194 459.241 273.985 458.558C276.471 456.394 278.215 453.731 278.351 450.356C278.478 447.184 277.613 443.681 275.248 441.438C273.045 439.349 269.925 438.621 266.962 438.887C263.51 439.196 260.053 440.903 257.91 443.661C256.324 445.702 255.585 448.236 256.011 450.802C256.744 455.216 260.071 457.898 263.465 460.356L263.375 484.222C266.507 487.308 269.477 490.566 272.487 493.771L272.546 518.677C282.236 527.447 291.895 538.397 301.279 547.74L326.151 572.493C330.639 577.029 335.861 581.68 339.448 586.957C339.499 588.906 339.919 592.32 338.874 593.995C338.077 595.273 337.653 595.403 336.31 595.889C334.299 595.847 332.018 593.641 330.529 592.33C324.148 586.714 318.386 580.068 312.448 573.964C302.948 564.263 293.392 554.618 283.779 545.029C278.297 539.632 272.863 534.186 267.478 528.693C251.976 543.414 237.241 559.057 222.128 574.188C214.787 581.538 206.786 591.211 197.855 596.531C194.103 590.583 195.005 584.005 195.596 577.326C201.204 570.306 208.128 564.084 214.492 557.738C229.557 542.712 245.541 527.875 259.599 511.912C253.75 505.241 247.322 499.051 241.042 492.789L240.969 486.154C242.206 485.224 243.531 484.281 244.593 483.147C246.674 480.926 247.912 477.886 247.654 474.824C247.401 471.823 245.785 469.143 243.443 467.29C241.01 465.364 237.833 464.418 234.747 464.838C232.112 465.214 229.751 466.663 228.222 468.842C226.557 471.177 225.306 474.454 225.869 477.343C226.71 481.664 230.599 484.224 234.013 486.45C234.055 489.562 233.692 492.618 233.359 495.707C238.953 500.892 244.257 506.466 249.583 511.924C246.546 515.737 242.666 519.189 239.225 522.657L218.066 543.839C211.541 550.368 202.44 561.025 195.413 566.404C196.1 552.244 195.656 538.056 195.551 523.889L195.497 472.004C195.473 460.747 194.303 445.651 196.162 434.764C200.407 428.325 215.463 414.804 221.81 408.508C234.494 395.927 246.862 382.679 259.922 370.518C261.528 369.022 263.167 367.732 265.011 366.532Z"/><path fill="#427A97" d="M267.66 390.004C273.611 395.091 279.134 401.07 284.739 406.569L322.546 444.312L322.519 547.246C314.315 539.091 306.332 530.682 298.209 522.442L310.513 510.178L310.477 480.633C311.766 479.643 313.095 478.589 314.205 477.402C316.357 475.1 317.811 471.884 317.489 468.691C317.215 465.972 315.718 463.54 313.625 461.826C311.099 459.733 307.82 458.778 304.566 459.187C301.996 459.533 299.642 460.85 298.135 462.98C296.305 465.569 295.468 469.524 296.124 472.629C296.959 476.578 299.888 478.596 303 480.712L303.02 494.75L303.044 506.195C299.523 509.938 295.786 513.511 292.154 517.147L288.977 513.685C288.49 488.221 288.796 462.77 288.876 437.303C282.08 429.882 274.719 422.933 267.352 416.085L211.599 471.653L211.65 446.204C217.355 439.005 224.751 432.862 231.276 426.392L267.66 390.004Z"/><path fill="#427A97" d="M305.058 466.255C306.313 465.769 307.734 466 308.771 466.858C309.809 467.716 310.302 469.068 310.06 470.392C309.818 471.717 308.879 472.807 307.605 473.243C305.689 473.899 303.6 472.901 302.906 470.998C302.212 469.095 303.169 466.987 305.058 466.255Z"/><path fill="#0F3B4E" d="M488.381 419.576C495.085 419.284 501.023 419.883 506.658 423.981C512.538 428.255 515.748 435.055 516.817 442.097C518.011 449.965 516.301 458.515 511.357 464.865C507.415 469.928 501.719 473.27 495.297 473.853C487.849 474.528 482.055 471.811 476.532 467.115L476.776 473.067C476.752 478.843 476.692 484.618 476.596 490.392C472.457 490.055 468.217 490.375 464.068 490.507L463.989 420.628L476.574 420.653L476.442 427.115C480.22 423.385 483.329 421.168 488.381 419.576ZM492.237 462.161C496.743 460.578 499.973 458.521 502.122 454.033C504.175 449.744 504.442 444.437 502.781 439.975C501.373 436.191 498.661 433.251 494.923 431.684C492.927 430.847 490.974 430.649 488.834 430.548C484.186 431.959 480.764 433.706 478.31 438.171C476.05 442.356 475.574 447.274 476.988 451.815C478.188 455.611 480.698 458.788 484.234 460.657C486.745 461.985 489.45 462.188 492.237 462.161Z"/><path fill="#0F3B4E" d="M417.475 399.961C422.312 399.894 427.149 399.899 431.985 399.974C440.642 424.209 449.672 448.31 459.072 472.266C454.018 472.114 448.96 472.191 443.913 472.497C442.045 467.265 440.124 462.053 438.578 456.714L433.298 456.629L410.944 456.485L405.661 472.518C400.56 472.261 395.358 472.494 390.248 472.516C398.75 448.135 409.441 424.541 417.475 399.961ZM415 445.041L424.375 445.027L434.373 445.048C431.638 436.595 429.29 425.729 424.542 418.286C421.407 427.158 417.665 436.038 415 445.041Z"/><path fill="#0F3B4E" d="M546.491 494.468L558.995 494.546L559.035 561.168L547.311 560.99C547.077 559.741 546.967 557.556 546.114 556.683C544.263 558.123 542.348 559.78 540.273 560.875C534.946 563.685 529.531 562.38 524.135 560.721C523.141 560.214 522.142 559.699 521.2 559.099C515.991 555.783 512.628 550.186 511.252 544.255C509.552 536.931 510.622 529.231 514.791 522.895C518.019 517.991 523.01 514.212 528.865 513.193C535.471 512.043 541.279 514.29 546.556 518.104C546.592 510.225 546.571 502.347 546.491 494.468ZM537.838 550.945C541.809 549.28 544.487 547.298 546.215 543.22C547.792 539.5 547.83 535.072 546.255 531.345C544.934 528.218 542.449 525.718 539.222 524.598C537.058 523.846 535.079 523.776 532.826 524.008C528.792 525.451 526.22 527.283 524.437 531.308C522.728 535.169 522.798 539.786 524.515 543.629C525.927 546.794 528.57 549.365 531.879 550.477C533.817 551.129 535.823 551.074 537.838 550.945Z"/><path fill="#0F3B4E" d="M722.844 494.487C726.879 494.654 730.949 494.574 734.989 494.598L735.014 518.914C738.388 515.88 742.047 513.761 746.587 513.026C751.899 512.132 757.346 513.453 761.658 516.682C766.748 520.497 769.937 526.664 770.85 532.888C772.038 540.981 769.904 548.501 765.143 555.089C749.545 571.043 739.956 556.331 734.956 558.05L734.283 560.757C730.887 561.716 726.259 561.089 722.696 561.014C723.032 538.84 723.081 516.662 722.844 494.487ZM749.377 550.822C753.272 549.163 755.826 547.192 757.508 543.189C759.08 539.445 759.146 534.859 757.475 531.133C756.066 527.994 753.554 525.599 750.298 524.454C748.272 523.742 745.958 523.627 743.843 523.936C739.945 525.622 737.33 527.42 735.622 531.456C734.061 535.148 734.164 539.527 735.671 543.22C736.97 546.404 739.34 548.941 742.551 550.228C744.725 551.1 747.082 551.162 749.377 550.822Z"/><path fill="#0F3B4E" d="M480.495 512.717C494.179 511.686 506.11 521.939 507.149 535.623C508.189 549.306 497.944 561.244 484.261 562.293C470.565 563.343 458.614 553.086 457.573 539.389C456.533 525.692 466.798 513.748 480.495 512.717ZM484.235 551.261C488.584 549.57 491.697 547.499 493.549 543.013C495.038 539.338 495.006 535.223 493.462 531.571C492.099 528.422 489.44 525.756 486.22 524.524C484.569 523.893 482.819 523.74 481.074 523.574C477.007 524.909 474.104 526.734 472.058 530.618C470.079 534.373 469.787 539.012 471.184 543.011C472.301 546.209 474.539 548.894 477.667 550.267C479.873 551.235 481.859 551.515 484.235 551.261Z"/><path fill="#0F3B4E" d="M420.845 493.676C426.246 493.227 431.52 493.773 436.567 495.856C445.372 499.492 450.108 506.616 453.584 515.033L440.707 518.237C439.596 515.942 438.353 513.635 436.697 511.682C433.665 508.106 429.66 505.913 424.954 505.612C419.799 505.283 414.354 506.945 410.551 510.498C406.138 514.62 404.239 520.863 403.971 526.761C403.678 533.185 405.643 539.547 410.135 544.247C413.797 548.079 418.985 550.566 424.334 550.47C430.325 550.362 434.773 547.326 438.688 543.096L441.092 539.229C445.643 539.627 450.078 540.743 454.527 541.739C453.349 544.467 451.988 547.197 450.29 549.643C445.69 556.265 438.942 560.458 431.048 561.842C421.888 563.447 411.995 561.895 404.36 556.394C396.79 550.94 391.966 542.509 390.608 533.323C389.22 523.937 391.193 514.081 396.932 506.42C402.995 498.327 411.135 495.102 420.845 493.676Z"/><path fill="#0F3B4E" d="M543.932 419.644C544.034 419.632 544.135 419.615 544.237 419.608C551.324 419.149 558.245 420.067 563.701 425.066C570.864 431.63 571.774 440.866 572.344 449.924C559.958 449.759 547.54 449.987 535.152 450.035C536.114 453.25 536.91 456.118 539.127 458.758C541.156 461.174 543.823 462.729 547 462.95C552.315 463.319 556.309 460.125 560.072 456.859C561.848 457.283 563.596 457.9 565.34 458.443C567.228 459 569.067 459.584 570.895 460.315C567.238 466.271 562.895 470.95 555.917 472.881C548.962 474.806 540.638 473.858 534.509 470.041C528.473 466.282 524.579 460.127 523.098 453.25C521.428 445.5 522.488 436.709 526.993 430.068C531.169 423.911 536.844 421.073 543.932 419.644ZM535.309 440.871C540.195 440.863 545.104 440.759 549.987 440.957C552.867 440.983 556.213 441.378 558.984 440.555C559.849 439.461 559.921 439.48 559.87 438.1C558.148 435.03 553.768 431.367 550.305 430.323C548.555 429.796 546.88 429.854 545.088 430.047C539.857 432.24 537.816 434.728 535.685 439.933L535.309 440.871Z"/><path fill="#0F3B4E" d="M690.453 513.127C692.391 512.965 694.354 512.928 696.298 512.933C701.558 512.946 706.913 514.459 710.6 518.384C718.81 527.125 715.985 549.613 715.624 560.887C713.131 560.919 706.606 561.704 704.53 560.511C703.939 560.171 703.805 558.875 703.626 558.231C702.142 557.026 692.854 562.847 687.741 562.694C682.644 562.541 678.932 559.722 675.521 556.248C675.385 555.978 675.246 555.709 675.114 555.437C673.304 551.705 672.04 546.187 673.539 542.165C677.686 531.04 694.225 535.811 702.5 531.884C703.338 531.486 703.206 531.318 703.526 530.511C702.877 528.555 702.161 526.174 700.483 524.856C698.7 523.457 696.469 522.719 694.208 523.013C690.393 523.508 687.861 526.015 685.571 528.87C681.761 528.318 677.983 527.001 674.287 525.928C674.964 524.491 675.645 523.033 676.513 521.698C679.993 516.345 684.458 514.401 690.453 513.127ZM694.447 552.26C698.411 551.233 701.647 549.368 703.667 545.596C704.303 544.408 704.588 542.918 703.895 541.685C703.685 541.311 703.171 540.888 702.848 540.598C700.368 540.474 697.958 540.466 695.478 540.555C692.06 541.347 688.656 541.723 686.684 545.01C685.969 546.201 685.914 547.006 686.009 548.366C686.784 550.128 687.864 551.025 689.651 551.699C691.179 552.276 692.836 552.239 694.447 552.26Z"/><path fill="#0F3B4E" d="M588.236 512.75C588.38 512.745 588.524 512.727 588.667 512.734C594.475 513.038 599.922 514.365 604.077 518.699C609.901 524.774 610.633 532.877 610.509 540.824C599.435 540.718 588.344 540.892 577.268 540.942C579.4 546.561 581.82 549.402 587.249 551.955C593.194 551.519 595.415 550.336 599.64 546.126L608.848 548.94C609.841 549.251 609.401 548.959 610.087 549.927C609.793 550.579 609.517 551.181 609.101 551.768C605.106 557.406 599.516 561.361 592.577 562.297C585.961 563.19 579.014 561.526 573.823 557.252C568.63 552.976 565.757 546.749 565.201 540.112C564.611 533.071 566.315 525.711 571.051 520.317C575.66 515.068 581.522 513.259 588.236 512.75ZM588.969 532.506L599.522 532.502C597.756 528.836 595.907 524.803 591.706 523.468C590.624 523.124 589.327 523.011 588.192 523.017C584.539 523.817 580.479 525.561 578.351 528.8C578.186 530.193 578.183 530.164 578.978 531.32C582.227 533.055 585.393 532.604 588.969 532.506Z"/><path fill="#0F3B4E" d="M572.985 420.465L587.142 420.784C591.198 425 594.271 431.092 597.41 436.035C600.599 430.851 603.817 425.684 607.062 420.535C612.017 420.745 617.013 420.572 621.972 420.531C617.029 429.263 610.521 437.867 604.598 445.991C607.866 450.137 621.106 467.556 621.467 471.828L620.125 472.158C615.798 472.349 611.45 472.277 607.119 472.283L597.205 456.589C594.273 462.114 590.75 467.275 587.305 472.488C581.866 472.028 576.428 472.31 570.983 472.496C577.328 463.815 583.643 455.159 589.786 446.332C584.565 437.496 578.199 429.329 572.985 420.465Z"/><path fill="#0F3B4E" d="M789.642 513.083C793.412 512.892 797.297 512.868 800.91 514.106C806.341 515.968 809.387 520.041 811.794 524.994L801.648 527.975C799.597 525.47 797.965 523.788 794.644 523.329C791.886 522.948 789.686 523.224 787.473 524.941C786.959 526.035 786.671 526.528 787.178 527.762C789.464 533.321 802.519 533.833 807.501 536.727C810.352 538.384 811.96 540.779 812.661 543.981C813.513 547.736 812.738 551.675 810.527 554.827C807.15 559.719 802.229 561.415 796.664 562.391C792.47 562.664 787.963 562.338 784.064 560.667C778.801 558.41 775.927 554.382 773.943 549.211C777.396 548.119 780.968 547.289 784.469 546.357C786.861 549.223 789.199 551.656 793.016 552.304C795.571 552.738 797.61 552.182 799.689 550.67C800.493 549.393 800.571 548.807 800.592 547.355C798.558 541.972 787.265 541.451 782.406 538.83C779.371 537.194 776.907 534.67 776.057 531.256C775.197 527.801 775.864 522.981 777.779 519.971C780.435 515.799 785.056 514.132 789.642 513.083Z"/><path fill="#0F3B4E" d="M632.757 495.032L645.531 495.012L645.838 549.005L669.508 548.977L669.498 560.989C657.335 560.836 645.171 560.848 633.008 561.025C632.978 539.546 633.884 516.302 632.757 495.032Z"/><path fill="#0F3B4E" d="M266.741 445.773C268.927 445.512 270.939 446.996 271.334 449.161C271.73 451.326 270.374 453.426 268.237 453.955C266.733 454.327 265.145 453.834 264.117 452.674C263.089 451.513 262.79 449.878 263.341 448.429C263.892 446.98 265.202 445.957 266.741 445.773Z"/><path fill="#0F3B4E" d="M236.413 471.73C238.63 471.644 240.499 473.368 240.59 475.584C240.682 477.801 238.962 479.674 236.746 479.771C234.522 479.868 232.642 478.142 232.55 475.918C232.457 473.694 234.188 471.817 236.413 471.73Z"/></svg>