<?xml version="1.0" encoding="utf-8" ?><svg xmlns="http://www.w3.org/2000/svg" xmlns:xlink="http://www.w3.org/1999/xlink" width="622" height="239" viewBox="0 0 622 239"><path fill="#103C4E" d="M75.4447 6.44796C75.4932 6.44565 75.5417 6.44228 75.5902 6.44102C78.8202 6.35711 81.7821 8.72996 83.9979 10.8456C91.7414 18.2392 99.1198 26.0981 106.732 33.6389C115.539 42.2369 124.257 50.9252 132.885 59.7026C137.157 63.9919 144.536 69.8523 147.291 75.0694C148.14 76.6778 148.046 79.5042 148.115 81.3228C148.579 93.5887 148.216 106.025 148.203 118.305L148.208 180.007C148.096 191.859 148.121 203.711 148.285 215.562L102.669 169.645C98.066 164.929 93.1622 160.482 88.7174 155.617C89.2037 147.31 89.0322 138.967 89.3557 130.65C86.3008 127.872 83.4339 124.843 80.5589 121.88C79.7931 117.324 79.8476 104.674 80.5726 100.152C82.7049 98.7752 84.5161 97.2104 85.8898 95.0556C87.3058 92.8345 87.9379 90.1544 87.3379 87.5601C86.6254 84.479 85.1059 81.8439 82.368 80.1498C79.8246 78.6034 76.7774 78.1126 73.8771 78.7823C70.8661 79.495 68.0273 81.5117 66.421 84.1636C64.953 86.591 64.5261 89.5077 65.2368 92.2539C66.2434 96.1674 69.2021 98.3897 72.5103 100.354C72.7379 108.218 72.5724 116.144 72.4524 124.013C75.1437 127.725 78.5234 130.795 81.6695 134.11C82.4341 141.253 81.4296 150.91 81.5582 158.41C86.3803 163.555 91.0725 168.82 96.0114 173.855C113.167 191.345 131.061 208.183 147.944 225.931C148.174 226.872 148.394 227.821 148.462 228.789C148.59 230.594 148.502 233.25 147.231 234.653C146.749 235.185 146.1 235.467 145.385 235.482C143.332 235.524 141.577 233.866 140.111 232.618C134.43 227.782 129.547 221.821 124.316 216.498L93.3495 185.508C87.6081 179.974 82.4435 173.953 76.5569 168.529C71.0232 172.699 66.791 178.034 61.9563 182.935L33.0302 211.866C26.2614 218.749 19.7216 226.179 12.4169 232.497C11.1488 233.594 9.57343 234.885 7.89401 235.242C7.2279 235.383 6.52751 235.349 5.95061 234.956C5.16356 234.419 4.8782 233.441 4.70635 232.555C4.01739 229.004 3.56472 220.058 5.1144 216.86C7.16894 212.621 16.5808 204.811 20.3206 201.159C30.1955 191.514 39.7428 181.469 49.4236 171.625C55.8464 165.094 63.0726 159.072 68.2582 151.475C62.3312 145.085 56.0274 139.082 50.0688 132.734C49.8245 130.673 49.8038 128.671 49.8321 126.601C51.393 125.227 53.038 123.867 54.319 122.22C56.1334 119.887 57.0741 117.106 56.6783 114.143C56.2817 111.173 54.4997 108.574 52.1325 106.797C49.7642 105.019 46.915 104.171 43.969 104.621C41.1906 105.046 38.6956 106.449 37.0402 108.739C35.3341 111.098 34.4337 114.476 34.9291 117.362C35.6848 121.765 39.5953 124.286 42.9843 126.636C43.1072 129.841 42.9453 133.106 42.8946 136.314C48.3982 141.196 53.7601 146.52 58.7102 151.959C56.6733 154.496 54.1773 156.818 51.9157 159.159C46.2806 164.918 40.5935 170.626 34.855 176.282C24.8004 186.331 15.1594 196.913 4.54842 206.38C4.21656 178.491 4.1594 150.599 4.37696 122.708L4.35072 97.2681C4.315 91.8148 4.08837 86.2816 4.33521 80.8344C4.41656 79.0391 4.56814 76.1672 5.34556 74.5573C6.22879 72.7284 8.09919 70.8651 9.50783 69.3984C13.5663 65.1729 17.9178 61.1743 22.1107 57.078L45.1228 34.433C49.4778 30.1651 53.7937 25.8574 58.0701 21.5107C61.6764 17.8019 65.1748 13.902 69.0397 10.462C71.0593 8.66439 72.8569 7.2755 75.4447 6.44796Z"/><path fill="#447A96" d="M76.5704 30.0761C79.2136 31.5428 87.7191 40.7289 90.3086 43.2834L131.739 84.4471C132.02 95.2496 131.737 106.127 131.696 116.937L131.571 187.157C123.611 178.792 115.455 170.355 107.106 162.379C111.209 158.011 115.869 154.154 119.722 149.546C119.195 140.035 119.177 130.255 119.469 120.733C121.378 119.117 123.319 117.552 124.694 115.432C126.243 113.046 126.85 110.245 126.241 107.449C125.615 104.579 123.88 102.073 121.414 100.477C118.951 98.899 116.038 98.4949 113.207 99.1436C110.571 99.7474 108.312 101.256 106.892 103.576C105.228 106.294 104.53 110.319 105.323 113.414C106.24 116.993 109.054 118.842 112.034 120.619C112.168 124.999 112.139 129.391 112.166 133.773C112.198 137.948 112.151 142.122 112.026 146.295C108.387 149.855 104.77 153.437 101.174 157.04C100.145 156.01 98.5181 154.676 98.1618 153.219C96.7626 147.498 97.7952 139.464 97.8433 133.507L97.8942 100.238C97.9469 92.6424 98.4116 84.8716 97.803 77.2971C95.8736 74.525 93.1032 72.1305 90.7008 69.7713C85.9898 65.1451 81.0805 60.6185 76.5791 55.792C69.8974 61.8815 63.6727 68.475 57.328 74.9101C45.2117 87.1994 33.1593 99.6331 20.6565 111.531C20.7367 103.048 20.1686 94.3158 20.9265 85.8719C26.234 79.1839 33.1142 73.6219 39.146 67.5963L76.5704 30.0761Z"/><path fill="#447A96" d="M114.162 106.137C115.494 105.688 116.964 106.011 117.984 106.978C119.004 107.945 119.405 109.397 119.026 110.75C118.648 112.103 117.552 113.136 116.179 113.434C114.213 113.86 112.256 112.678 111.72 110.739C111.185 108.8 112.256 106.78 114.162 106.137Z"/><path fill="#103C4E" d="M301.728 59.0662C308.086 59.3939 314.049 61.772 318.531 66.3847C323.882 71.8903 326.186 79.7199 326.054 87.2621C325.924 94.6563 323.298 102.23 317.871 107.409C313.397 111.653 307.414 113.937 301.25 113.755C295.46 113.579 289.541 110.954 285.567 106.725C285.645 110.64 285.66 114.556 285.614 118.471C285.694 121.062 285.882 123.714 285.756 126.302C285.697 127.535 285.476 128.957 284.484 129.806C282.369 131.616 276.326 130.555 273.73 130.385C271.693 120.441 273.148 109.681 273.21 99.589C273.289 86.6253 272.907 73.6562 273.314 60.6962C275.389 60.52 277.474 60.3159 279.554 60.217C281.236 60.137 283.059 60.3499 284.332 61.5619C285.714 62.8768 285.599 64.7676 285.629 66.522C290.568 61.7943 294.882 59.5453 301.728 59.0662ZM301.636 102.141C305.969 100.637 309.271 98.702 311.353 94.4383C313.486 90.0695 313.471 84.7745 311.897 80.2304C310.631 76.5784 308.017 73.3291 304.487 71.6586C302.058 70.5093 299.903 70.3937 297.257 70.5056C293.199 71.5622 289.815 73.4509 287.627 77.1568C285.142 81.3653 284.673 87.5057 285.91 92.1786C286.834 95.6688 289.101 98.7903 292.256 100.586C295.243 102.287 298.296 102.31 301.636 102.141Z"/><path fill="#103C4E" d="M236.216 39.6276C237.588 39.5474 238.961 39.7339 240.325 39.8699C242.993 44.7757 244.739 50.0701 246.645 55.3011L253.462 73.9854C258.168 86.8448 263.541 99.6208 267.727 112.645C263.053 112.461 258.316 112.621 253.635 112.624C250.913 108.205 248.363 101.665 247.415 96.6071L230.972 96.5122C227.252 96.5011 223.532 96.5129 219.812 96.5476C218.25 101.776 216.107 106.963 214.302 112.125C209.39 112.902 204.108 112.674 199.171 112.219C200.129 108.318 202.035 104.437 203.545 100.702C206.22 94.1724 208.825 87.6141 211.36 81.0286C214.856 71.9995 218.276 62.9413 221.62 53.8548C223.308 49.2576 224.706 44.4195 226.669 39.9393C229.836 39.6209 233.036 39.662 236.216 39.6276ZM224.314 85.2546C227.555 84.8674 231.005 85.1173 234.273 85.1557C237.308 85.174 240.395 85.2999 243.422 85.1257C242.284 81.532 235.829 59.7848 233.833 58.2204C230.823 66.1071 226.165 77.2399 224.314 85.2546Z"/><path fill="#103C4E" d="M356.775 134.289C360.433 134.154 364.105 134.355 367.767 134.314C367.95 156.465 367.954 178.617 367.777 200.768C364.839 200.611 359.774 201.827 357.383 199.97C356.094 198.969 356.091 197.407 355.931 195.917C354.013 197.833 351.617 199.423 349.122 200.479C343.406 202.899 337.997 202.082 332.41 199.81C330.327 198.849 328.462 197.46 326.826 195.859C322.047 191.185 320.115 184.904 320.053 178.344C319.983 171.037 321.77 164.167 327.019 158.857C330.769 155.064 335.644 152.816 341.011 152.793C346.76 152.768 352.072 155.326 356.105 159.326C355.436 153.555 355.567 147.62 355.582 141.817C355.587 139.655 355.207 135.849 356.775 134.289ZM345.734 191.477C349.161 190.761 352.035 189.062 353.983 186.089C356.328 182.511 356.826 177.819 355.95 173.69C355.215 170.227 353.33 167.2 350.322 165.276C347.9 163.727 345.187 163.191 342.345 163.505C338.343 164.856 335.374 166.781 333.443 170.662C331.659 174.193 331.366 178.292 332.628 182.042C333.814 185.532 336.106 188.598 339.465 190.233C341.481 191.214 343.518 191.446 345.734 191.477Z"/><path fill="#103C4E" d="M532.12 134.54L543.761 134.511C543.85 142.695 544.045 150.926 543.789 159.105C547.173 156.34 550.925 154.083 555.298 153.368C560.513 152.515 565.987 153.477 570.312 156.587C575.358 160.217 578.428 166.125 579.375 172.188C580.612 180.11 578.96 187.974 574.237 194.484C572.067 196.942 569.323 199.109 566.304 200.426C556.931 204.515 551.964 200.038 543.857 196.819C543.684 198.018 543.433 199.203 543.194 200.39C539.605 200.936 535.945 200.85 532.34 200.546C531.382 193.207 532.036 185.884 532.044 178.517L532.12 134.54ZM557.914 191.152C561.93 189.423 565.082 187.398 566.763 183.17C568.28 179.352 568.145 174.433 566.506 170.676C565.238 167.767 562.923 165.366 559.95 164.199C557.7 163.316 555.514 163.239 553.135 163.466C549.505 164.672 546.732 166.437 544.972 169.952C543.045 173.802 542.838 179.026 544.228 183.079C545.277 186.137 547.36 188.741 550.306 190.148C552.706 191.294 555.299 191.495 557.914 191.152Z"/><path fill="#103C4E" d="M289.106 152.845C302.697 151.603 314.71 161.64 315.903 175.234C317.096 188.829 307.015 200.805 293.416 201.949C279.885 203.088 267.981 193.07 266.794 179.544C265.607 166.019 275.583 154.08 289.106 152.845ZM293.48 191.299C297.427 189.772 300.329 187.861 302.102 183.858C303.769 180.095 303.878 175.466 302.367 171.634C301.106 168.434 298.743 165.799 295.566 164.432C293.787 163.667 291.746 163.381 289.817 163.465C286.243 164.344 283.313 166 281.365 169.224C279.2 172.806 278.816 177.453 279.832 181.463C280.687 184.834 282.548 188.047 285.608 189.848C288.064 191.293 290.689 191.576 293.48 191.299Z"/><path fill="#103C4E" d="M229.765 133.741C236.596 133.195 243.891 134.397 249.807 137.974C255.877 141.726 260.221 147.721 261.897 154.657C258.042 155.935 254.079 156.898 250.123 157.805C248.412 154.957 246.716 152.134 244.244 149.865C240.757 146.664 236.404 145.187 231.692 145.396C226.613 145.599 221.829 147.836 218.417 151.604C214.091 156.342 212.475 163.207 212.764 169.493C213.033 175.357 215.518 181.297 219.91 185.263C223.837 188.809 229.24 190.607 234.508 190.329C240.024 190.038 243.784 187.682 247.397 183.671C248.413 182.173 249.287 180.541 250.209 178.981C254.105 180.394 258.553 180.949 262.621 181.697C261.507 185.186 260.304 188.408 258.056 191.36C253.153 197.795 245.864 200.97 238.028 202.016C228.909 203.326 219.644 200.938 212.295 195.383C205.148 189.892 200.693 181.44 199.549 172.555C198.271 162.979 200.883 153.291 206.801 145.654C212.731 138.038 220.444 134.924 229.765 133.741Z"/><path fill="#103C4E" d="M355.177 59.3452C356.204 59.1812 357.284 59.2857 358.316 59.3524C364.713 59.7655 370.357 62.5518 374.58 67.3843C380.138 73.7433 381.091 81.7758 380.545 89.8976C368.469 89.9261 356.386 89.7495 344.313 89.8608C344.504 92.3576 345.004 94.6052 346.253 96.8006C347.885 99.7335 350.644 101.874 353.89 102.726C360.874 104.6 364.253 100.078 369.692 96.9751C371.31 97.2171 372.85 97.6928 374.415 98.1571C375.372 98.5203 376.368 98.8668 377.29 99.3123C378.067 99.688 378.399 100.172 378.697 100.961C378.755 102.612 377.667 103.985 376.671 105.207C372.79 109.971 366.878 112.95 360.789 113.559C353.624 114.276 346.265 112.469 340.661 107.84C335.397 103.491 332.614 96.9301 331.991 90.2378C331.261 82.4013 332.618 74.0593 337.795 67.8696C342.283 62.5043 348.333 59.9771 355.177 59.3452ZM356.679 81.1382C360.495 81.1257 364.343 81.2139 368.152 81.0189C367.029 77.1021 365.739 73.1502 361.943 71.0337C360.029 69.9665 357.978 69.6736 355.818 69.6198C351.557 70.3304 348.023 73.1996 345.556 76.6621C344.886 77.6035 344.257 78.522 344.465 79.7271C344.528 80.0923 344.929 80.563 345.23 80.778C347.415 82.3379 354.012 81.2943 356.679 81.1382Z"/><path fill="#103C4E" d="M395.28 152.837C396.044 152.76 396.811 152.728 397.578 152.742C403.571 152.873 409.174 154.827 413.361 159.226C419.03 165.182 419.779 172.599 419.616 180.437C410.185 180.313 395.408 179.493 386.38 180.893C386.947 183.629 387.864 186.036 389.719 188.181C391.692 190.462 394.321 191.747 397.328 191.946C402.187 192.268 405.544 189.598 408.986 186.575C411.135 187.129 413.258 187.682 415.345 188.448C416.699 188.726 418.069 189.225 419.396 189.62C418.857 190.579 418.308 191.544 417.671 192.443C413.965 197.675 408.75 200.753 402.452 201.815C396.031 202.897 389.277 201.622 383.949 197.795C378.694 194.022 375.588 188.533 374.562 182.193C373.411 175.083 374.66 167.763 378.949 161.878C382.959 156.376 388.753 153.864 395.28 152.837ZM386.677 172.773C390.594 172.553 394.551 172.793 398.474 172.759C400.384 172.791 406.161 173.461 407.521 172.15C407.861 171.295 407.98 170.784 407.615 169.884C406.464 167.039 403.401 164.439 400.588 163.337C398.927 162.686 397.314 162.551 395.548 162.794C391.942 164.242 389.287 165.952 387.693 169.635C387.258 170.64 386.97 171.718 386.677 172.773Z"/><path fill="#103C4E" d="M504.319 152.884C504.418 152.882 504.517 152.881 504.617 152.886C510.123 153.146 515.614 154.377 519.527 158.537C521.659 160.804 523.06 163.629 523.751 166.652C525.028 172.239 524.367 178.221 524.292 183.907C524.216 189.586 524.259 195.258 524.068 200.936C521.28 200.889 516.993 201.626 514.618 200.048C513.235 199.129 513.134 197.802 512.847 196.288C511.106 197.793 509.029 199.083 506.931 200.022C502.236 202.123 496.234 202.716 491.366 200.849C487.196 199.25 484.901 196.248 483.143 192.279C482.644 190.766 482.46 189.129 482.43 187.543C482.369 184.234 483.409 181.242 485.727 178.848C492.087 172.279 504.341 172.614 512.841 172.476C512.707 170.73 512.595 169.071 511.768 167.484C510.553 165.155 508.549 163.332 506.007 162.584C499.14 160.563 498.331 165.758 494.064 167.879C491.715 169.047 486.071 166.59 483.712 165.816C484.529 163.424 485.571 161.161 487.22 159.225C491.636 154.042 497.969 153.383 504.319 152.884ZM502.111 192.693C505.637 192.461 508.377 191.221 510.733 188.528C511.986 187.096 513.492 184.891 513.341 182.916C513.285 182.181 512.937 181.465 512.362 180.997C510.513 179.492 507.243 180.021 505.05 180.269C501.817 180.479 498.579 180.857 496.292 183.455C495.27 184.617 494.689 186.074 494.794 187.633C494.869 188.926 495.467 190.132 496.45 190.975C497.829 192.136 500.317 192.747 502.111 192.693Z"/><path fill="#103C4E" d="M420.607 60.2564C424.124 60.0561 427.656 60.4398 431.156 60.7498C428.514 64.0914 426.187 67.6865 423.752 71.1786C420.351 76.0585 416.892 80.8937 413.702 85.9166C419.298 94.7022 426.318 102.68 430.889 112.102C427.425 112.692 422.399 113.066 418.996 112.234C413.533 110.9 409.532 101.308 406.773 96.6483C403.213 101.187 400.72 106.978 396.85 111.156C395.757 112.336 395.078 112.444 393.533 112.505C390.725 112.573 387.604 112.726 384.827 112.258C383.766 112.079 383.016 111.86 382.383 110.975C383.04 106.644 396.045 90.3338 399.168 86.0962C393.523 77.9801 386.676 69.3711 382.244 60.5862C386.716 60.1531 391.615 60.3045 396.108 60.4949C399.984 65.292 403.127 71.0094 406.533 76.1636C409.92 71.7362 411.98 66.1458 415.502 61.9449C416.887 60.2935 418.61 60.4244 420.607 60.2564Z"/><path fill="#103C4E" d="M442.174 134.912C446.171 134.69 450.187 135.015 454.181 135.222C455.031 141.868 454.637 148.849 454.632 155.552C454.592 166.712 454.639 177.872 454.772 189.031C462.4 189.428 470.072 188.561 477.75 188.989C477.91 192.896 478.095 196.787 477.681 200.684C471.839 201.388 465.942 200.875 460.081 200.766C454.16 200.656 448.229 200.786 442.304 200.711C441.837 190.726 442.072 180.683 442.111 170.689L442.174 134.912Z"/><path fill="#103C4E" d="M75.2343 85.8177C77.4047 85.2137 79.6586 86.4613 80.2989 88.6211C80.9392 90.7809 79.7293 93.0551 77.5804 93.7314C76.1579 94.1791 74.6046 93.8248 73.517 92.8046C72.4294 91.7845 71.9766 90.2571 72.3325 88.8091C72.6884 87.3611 73.7977 86.2176 75.2343 85.8177Z"/><path fill="#103C4E" d="M44.3842 111.867C46.5047 111.143 48.8098 112.278 49.5299 114.399C50.25 116.521 49.1118 118.824 46.989 119.541C44.871 120.256 42.5739 119.121 41.8554 117.004C41.1369 114.887 42.2684 112.589 44.3842 111.867Z"/><path fill="#103C4E" d="M593.028 186.983C594.613 188.61 596.239 190.356 598.224 191.503C600.548 192.845 603.624 193.25 606.213 192.499C607.499 192.126 609.161 191.242 609.795 189.996C610.232 189.121 610.297 188.106 609.973 187.183C608.218 182.227 596.123 181.101 591.424 178.751C588.651 177.365 586.302 175.375 585.306 172.341C584.189 168.936 584.832 164.444 586.462 161.301C588.245 157.883 591.329 155.326 595.019 154.206C600.937 152.382 607.732 152.584 613.26 155.516C616.947 157.472 619.096 160.819 620.3 164.711C617.417 165.715 614.439 166.435 611.489 167.212C610.648 166.461 609.742 165.744 608.83 165.08C606.453 163.347 603.49 161.898 600.468 162.433C598.914 162.708 597.051 163.683 596.178 165.04C595.783 165.653 595.649 166.323 595.84 167.032C597.294 172.412 612.282 174.044 616.945 176.837C620.014 178.675 621.167 182.992 622 186.212L622 187.547C621.717 189.119 621.367 190.693 620.746 192.171C619.092 196.108 615.992 199.036 612.042 200.627C606.449 202.881 598.864 202.895 593.317 200.493C588.089 198.229 585.719 194.531 583.697 189.405C586.717 188.194 589.829 187.499 593.028 186.983Z"/></svg>